<mxfile host="app.diagrams.net" agent="Mozilla/5.0 (X11; Linux x86_64; rv:138.0) Gecko/20100101 Firefox/138.0" version="27.1.4">
  <diagram name="Página-1" id="CXScBidZ75YoOiKV-yek">
    <mxGraphModel grid="1" page="1" gridSize="10" guides="1" tooltips="1" connect="1" arrows="1" fold="1" pageScale="1" pageWidth="827" pageHeight="1169" math="0" shadow="0">
      <root>
        <mxCell id="0" />
        <mxCell id="1" parent="0" />
        <mxCell id="SrWQHn7tZdCbF9D9diHO-8" value="" style="endArrow=open;html=1;rounded=0;exitX=0.5;exitY=1;exitDx=0;exitDy=0;entryX=0.5;entryY=0;entryDx=0;entryDy=0;endFill=0;strokeWidth=2;fontStyle=1" edge="1" parent="1" source="SrWQHn7tZdCbF9D9diHO-28">
          <mxGeometry width="50" height="50" relative="1" as="geometry">
            <mxPoint x="1119.5" y="162.5" as="sourcePoint" />
            <mxPoint x="1120" y="190" as="targetPoint" />
          </mxGeometry>
        </mxCell>
        <mxCell id="SrWQHn7tZdCbF9D9diHO-52" value="Inserir credenciais" style="edgeLabel;html=1;align=center;verticalAlign=middle;resizable=0;points=[];fontStyle=1" vertex="1" connectable="0" parent="SrWQHn7tZdCbF9D9diHO-8">
          <mxGeometry x="-0.0638" y="-1" relative="1" as="geometry">
            <mxPoint as="offset" />
          </mxGeometry>
        </mxCell>
        <mxCell id="SrWQHn7tZdCbF9D9diHO-27" value="Usuário" style="shape=umlFrame;whiteSpace=wrap;html=1;pointerEvents=0;fontStyle=1;width=80;height=28;" vertex="1" parent="1">
          <mxGeometry x="1030" y="60" width="770" height="350" as="geometry" />
        </mxCell>
        <mxCell id="SrWQHn7tZdCbF9D9diHO-28" value="" style="ellipse;html=1;shape=startState;fillColor=light-dark(#000000,#000000);strokeColor=none;strokeWidth=2;fontStyle=1" vertex="1" parent="1">
          <mxGeometry x="1105" y="92.5" width="30" height="27.5" as="geometry" />
        </mxCell>
        <mxCell id="SrWQHn7tZdCbF9D9diHO-78" style="edgeStyle=orthogonalEdgeStyle;rounded=0;orthogonalLoop=1;jettySize=auto;html=1;entryX=0;entryY=0.5;entryDx=0;entryDy=0;endArrow=open;endFill=0;strokeWidth=2;fontStyle=1" edge="1" parent="1" source="SrWQHn7tZdCbF9D9diHO-61" target="SrWQHn7tZdCbF9D9diHO-77">
          <mxGeometry relative="1" as="geometry" />
        </mxCell>
        <mxCell id="SrWQHn7tZdCbF9D9diHO-61" value="Não cadastrado" style="rounded=1;whiteSpace=wrap;html=1;arcSize=40;fontStyle=1;strokeWidth=2;" vertex="1" parent="1">
          <mxGeometry x="1060" y="290" width="120" height="40" as="geometry" />
        </mxCell>
        <mxCell id="SrWQHn7tZdCbF9D9diHO-72" style="edgeStyle=orthogonalEdgeStyle;rounded=0;orthogonalLoop=1;jettySize=auto;html=1;entryX=0;entryY=0.5;entryDx=0;entryDy=0;endArrow=open;endFill=0;strokeWidth=2;fontStyle=1" edge="1" parent="1" source="SrWQHn7tZdCbF9D9diHO-70" target="SrWQHn7tZdCbF9D9diHO-71">
          <mxGeometry relative="1" as="geometry" />
        </mxCell>
        <mxCell id="SrWQHn7tZdCbF9D9diHO-73" style="edgeStyle=orthogonalEdgeStyle;rounded=0;orthogonalLoop=1;jettySize=auto;html=1;entryX=0.5;entryY=0;entryDx=0;entryDy=0;endArrow=open;endFill=0;strokeWidth=2;fontStyle=1" edge="1" parent="1" source="SrWQHn7tZdCbF9D9diHO-70" target="SrWQHn7tZdCbF9D9diHO-61">
          <mxGeometry relative="1" as="geometry" />
        </mxCell>
        <mxCell id="SrWQHn7tZdCbF9D9diHO-70" value="" style="rhombus;whiteSpace=wrap;html=1;fontStyle=1;strokeWidth=2;" vertex="1" parent="1">
          <mxGeometry x="1097.75" y="190" width="44.5" height="40" as="geometry" />
        </mxCell>
        <mxCell id="SrWQHn7tZdCbF9D9diHO-84" style="edgeStyle=orthogonalEdgeStyle;rounded=0;orthogonalLoop=1;jettySize=auto;html=1;entryX=0;entryY=0.5;entryDx=0;entryDy=0;endArrow=open;endFill=0;strokeWidth=2;fontStyle=1" edge="1" parent="1" source="SrWQHn7tZdCbF9D9diHO-71" target="SrWQHn7tZdCbF9D9diHO-74">
          <mxGeometry relative="1" as="geometry" />
        </mxCell>
        <mxCell id="SrWQHn7tZdCbF9D9diHO-71" value="Cadastrado" style="rounded=1;whiteSpace=wrap;html=1;arcSize=40;fontStyle=1;strokeWidth=2;" vertex="1" parent="1">
          <mxGeometry x="1241" y="190" width="120" height="40" as="geometry" />
        </mxCell>
        <mxCell id="SrWQHn7tZdCbF9D9diHO-92" style="edgeStyle=orthogonalEdgeStyle;rounded=0;orthogonalLoop=1;jettySize=auto;html=1;entryX=0;entryY=0.5;entryDx=0;entryDy=0;endArrow=open;endFill=0;strokeWidth=2;fontStyle=1" edge="1" parent="1" source="SrWQHn7tZdCbF9D9diHO-74" target="SrWQHn7tZdCbF9D9diHO-88">
          <mxGeometry relative="1" as="geometry" />
        </mxCell>
        <mxCell id="sqH-9ZQn4JVQ3R7ExywO-2" style="edgeStyle=orthogonalEdgeStyle;rounded=0;orthogonalLoop=1;jettySize=auto;html=1;exitX=0.5;exitY=0;exitDx=0;exitDy=0;entryX=0.5;entryY=1;entryDx=0;entryDy=0;endArrow=open;endFill=0;strokeWidth=2;" edge="1" parent="1" source="SrWQHn7tZdCbF9D9diHO-74" target="sqH-9ZQn4JVQ3R7ExywO-1">
          <mxGeometry relative="1" as="geometry" />
        </mxCell>
        <mxCell id="SrWQHn7tZdCbF9D9diHO-74" value="Deslogado" style="rounded=1;whiteSpace=wrap;html=1;arcSize=40;fontStyle=1;strokeWidth=2;" vertex="1" parent="1">
          <mxGeometry x="1480" y="190" width="120" height="40" as="geometry" />
        </mxCell>
        <mxCell id="SrWQHn7tZdCbF9D9diHO-79" style="edgeStyle=orthogonalEdgeStyle;rounded=0;orthogonalLoop=1;jettySize=auto;html=1;entryX=0.5;entryY=1;entryDx=0;entryDy=0;endArrow=open;endFill=0;strokeWidth=2;fontStyle=1" edge="1" parent="1" source="SrWQHn7tZdCbF9D9diHO-77" target="SrWQHn7tZdCbF9D9diHO-71">
          <mxGeometry relative="1" as="geometry" />
        </mxCell>
        <mxCell id="SrWQHn7tZdCbF9D9diHO-80" style="edgeStyle=orthogonalEdgeStyle;rounded=0;orthogonalLoop=1;jettySize=auto;html=1;entryX=0.5;entryY=1;entryDx=0;entryDy=0;endArrow=open;endFill=0;strokeWidth=2;fontStyle=1" edge="1" parent="1" source="SrWQHn7tZdCbF9D9diHO-77" target="SrWQHn7tZdCbF9D9diHO-61">
          <mxGeometry relative="1" as="geometry">
            <Array as="points">
              <mxPoint x="1300" y="360" />
              <mxPoint x="1120" y="360" />
            </Array>
          </mxGeometry>
        </mxCell>
        <mxCell id="SrWQHn7tZdCbF9D9diHO-77" value="" style="rhombus;whiteSpace=wrap;html=1;fontStyle=1;strokeWidth=2;" vertex="1" parent="1">
          <mxGeometry x="1278.75" y="290" width="44.5" height="40" as="geometry" />
        </mxCell>
        <mxCell id="SrWQHn7tZdCbF9D9diHO-81" value="Fazer cadastro" style="edgeLabel;html=1;align=center;verticalAlign=middle;resizable=0;points=[];fontStyle=1" connectable="0" vertex="1" parent="1">
          <mxGeometry x="1241" y="304" as="geometry">
            <mxPoint x="-12" y="-6" as="offset" />
          </mxGeometry>
        </mxCell>
        <mxCell id="SrWQHn7tZdCbF9D9diHO-82" value="[Sucesso]" style="text;html=1;align=center;verticalAlign=middle;resizable=0;points=[];autosize=1;strokeColor=none;fillColor=none;fontStyle=1" vertex="1" parent="1">
          <mxGeometry x="1300" y="247.5" width="80" height="30" as="geometry" />
        </mxCell>
        <mxCell id="SrWQHn7tZdCbF9D9diHO-83" value="[else]" style="text;html=1;align=center;verticalAlign=middle;resizable=0;points=[];autosize=1;strokeColor=none;fillColor=none;fontStyle=1" vertex="1" parent="1">
          <mxGeometry x="1250" y="330" width="50" height="30" as="geometry" />
        </mxCell>
        <mxCell id="SrWQHn7tZdCbF9D9diHO-87" value="Fazer login" style="edgeLabel;html=1;align=center;verticalAlign=middle;resizable=0;points=[];fontStyle=1" connectable="0" vertex="1" parent="1">
          <mxGeometry x="1662" y="205" as="geometry">
            <mxPoint x="-12" y="-6" as="offset" />
          </mxGeometry>
        </mxCell>
        <mxCell id="SrWQHn7tZdCbF9D9diHO-91" style="edgeStyle=orthogonalEdgeStyle;rounded=0;orthogonalLoop=1;jettySize=auto;html=1;entryX=1;entryY=0.5;entryDx=0;entryDy=0;endArrow=open;endFill=0;strokeWidth=2;fontStyle=1" edge="1" parent="1" source="SrWQHn7tZdCbF9D9diHO-88" target="SrWQHn7tZdCbF9D9diHO-104">
          <mxGeometry relative="1" as="geometry">
            <mxPoint x="1772" y="210" as="targetPoint" />
            <Array as="points">
              <mxPoint x="1772" y="210" />
              <mxPoint x="1772" y="350" />
            </Array>
          </mxGeometry>
        </mxCell>
        <mxCell id="SrWQHn7tZdCbF9D9diHO-94" style="edgeStyle=orthogonalEdgeStyle;rounded=0;orthogonalLoop=1;jettySize=auto;html=1;entryX=0.75;entryY=1;entryDx=0;entryDy=0;endArrow=open;endFill=0;strokeWidth=2;fontStyle=1" edge="1" parent="1" source="SrWQHn7tZdCbF9D9diHO-88" target="SrWQHn7tZdCbF9D9diHO-74">
          <mxGeometry relative="1" as="geometry">
            <Array as="points">
              <mxPoint x="1722" y="260" />
              <mxPoint x="1570" y="260" />
            </Array>
          </mxGeometry>
        </mxCell>
        <mxCell id="SrWQHn7tZdCbF9D9diHO-88" value="" style="rhombus;whiteSpace=wrap;html=1;fontStyle=1;strokeWidth=2;" vertex="1" parent="1">
          <mxGeometry x="1701" y="190" width="44.5" height="40" as="geometry" />
        </mxCell>
        <mxCell id="SrWQHn7tZdCbF9D9diHO-86" value="[Não logado]" style="edgeLabel;html=1;align=center;verticalAlign=middle;resizable=0;points=[];fontStyle=1" connectable="0" vertex="1" parent="1">
          <mxGeometry x="1410" y="200" as="geometry" />
        </mxCell>
        <mxCell id="SrWQHn7tZdCbF9D9diHO-95" value="[Sucesso]" style="text;html=1;align=center;verticalAlign=middle;resizable=0;points=[];autosize=1;strokeColor=none;fillColor=none;fontStyle=1" vertex="1" parent="1">
          <mxGeometry x="1692" y="274" width="80" height="30" as="geometry" />
        </mxCell>
        <mxCell id="SrWQHn7tZdCbF9D9diHO-96" value="[else]" style="text;html=1;align=center;verticalAlign=middle;resizable=0;points=[];autosize=1;strokeColor=none;fillColor=none;fontStyle=1" vertex="1" parent="1">
          <mxGeometry x="1620" y="232.5" width="50" height="30" as="geometry" />
        </mxCell>
        <mxCell id="SrWQHn7tZdCbF9D9diHO-99" value="Deslogar" style="text;html=1;align=center;verticalAlign=middle;resizable=0;points=[];autosize=1;strokeColor=none;fillColor=none;fontStyle=1" vertex="1" parent="1">
          <mxGeometry x="1505" y="274" width="70" height="30" as="geometry" />
        </mxCell>
        <mxCell id="SrWQHn7tZdCbF9D9diHO-103" value="" style="ellipse;html=1;shape=endState;fillColor=light-dark(#000000,#000000);strokeColor=default;strokeWidth=2;fontStyle=1" vertex="1" parent="1">
          <mxGeometry x="1380" y="335" width="30" height="30" as="geometry" />
        </mxCell>
        <mxCell id="SrWQHn7tZdCbF9D9diHO-105" style="edgeStyle=orthogonalEdgeStyle;rounded=0;orthogonalLoop=1;jettySize=auto;html=1;exitX=0.25;exitY=0;exitDx=0;exitDy=0;entryX=0.25;entryY=1;entryDx=0;entryDy=0;endArrow=open;endFill=0;strokeWidth=2;fontStyle=1" edge="1" parent="1" source="SrWQHn7tZdCbF9D9diHO-104" target="SrWQHn7tZdCbF9D9diHO-74">
          <mxGeometry relative="1" as="geometry" />
        </mxCell>
        <mxCell id="SrWQHn7tZdCbF9D9diHO-106" style="edgeStyle=orthogonalEdgeStyle;rounded=0;orthogonalLoop=1;jettySize=auto;html=1;entryX=1;entryY=0.5;entryDx=0;entryDy=0;endArrow=open;endFill=0;strokeWidth=2;fontStyle=1" edge="1" parent="1" source="SrWQHn7tZdCbF9D9diHO-104" target="SrWQHn7tZdCbF9D9diHO-103">
          <mxGeometry relative="1" as="geometry" />
        </mxCell>
        <mxCell id="SrWQHn7tZdCbF9D9diHO-104" value="Logado" style="rounded=1;whiteSpace=wrap;html=1;arcSize=40;fontStyle=1;strokeWidth=2;" vertex="1" parent="1">
          <mxGeometry x="1480" y="330" width="120" height="40" as="geometry" />
        </mxCell>
        <mxCell id="nfJpBXketNAOCULCQWtV-1" value="[Válido]" style="text;html=1;align=center;verticalAlign=middle;resizable=0;points=[];autosize=1;strokeColor=none;fillColor=none;fontStyle=1" vertex="1" parent="1">
          <mxGeometry x="1152.25" y="175" width="60" height="30" as="geometry" />
        </mxCell>
        <mxCell id="nfJpBXketNAOCULCQWtV-2" value="[else]" style="text;html=1;align=center;verticalAlign=middle;resizable=0;points=[];autosize=1;strokeColor=none;fillColor=none;fontStyle=1" vertex="1" parent="1">
          <mxGeometry x="1070" y="239.5" width="50" height="30" as="geometry" />
        </mxCell>
        <mxCell id="sqH-9ZQn4JVQ3R7ExywO-1" value="" style="ellipse;html=1;shape=endState;fillColor=light-dark(#000000,#000000);strokeColor=default;strokeWidth=2;fontStyle=1" vertex="1" parent="1">
          <mxGeometry x="1525" y="110" width="30" height="30" as="geometry" />
        </mxCell>
      </root>
    </mxGraphModel>
  </diagram>
</mxfile>
